<svg width="48" height="48" viewBox="0 0 48 48" fill="none" xmlns="http://www.w3.org/2000/svg">
<g clip-path="url(#clip0_4681_2530)">
<path fill-rule="evenodd" clip-rule="evenodd" d="M28.0977 32.1534V32.1534C26.8283 32.3652 25.5301 32.0077 24.548 31.1759C23.566 30.3442 22.9996 29.1225 22.9996 27.8356V20.1644C22.9996 18.8775 23.566 17.6558 24.548 16.8241C25.5301 15.9924 26.8283 15.6349 28.0977 15.8466V15.8466C32.0835 16.5108 35.0048 19.9593 35.0046 24V24C35.0048 28.0407 32.0835 31.4893 28.0977 32.1534V32.1534Z" stroke="#2E1066" stroke-width="2" stroke-linecap="round" stroke-linejoin="round"/>
<path fill-rule="evenodd" clip-rule="evenodd" d="M28.0977 32.1534V32.1534C26.8283 32.3652 25.5301 32.0077 24.548 31.1759C23.566 30.3442 22.9996 29.1225 22.9996 27.8356V20.1644C22.9996 18.8775 23.566 17.6558 24.548 16.8241C25.5301 15.9924 26.8283 15.6349 28.0977 15.8466V15.8466C32.0835 16.5108 35.0048 19.9593 35.0046 24V24C35.0048 28.0407 32.0835 31.4893 28.0977 32.1534V32.1534Z" stroke="#410F9E" stroke-width="2" stroke-linecap="round" stroke-linejoin="round"/>
<path fill-rule="evenodd" clip-rule="evenodd" d="M28.0977 32.1534V32.1534C26.8283 32.3652 25.5301 32.0077 24.548 31.1759C23.566 30.3442 22.9996 29.1225 22.9996 27.8356V20.1644C22.9996 18.8775 23.566 17.6558 24.548 16.8241C25.5301 15.9924 26.8283 15.6349 28.0977 15.8466V15.8466C32.0835 16.5108 35.0048 19.9593 35.0046 24V24C35.0048 28.0407 32.0835 31.4893 28.0977 32.1534V32.1534Z" stroke="#453888" stroke-width="2" stroke-linecap="round" stroke-linejoin="round"/>
<path fill-rule="evenodd" clip-rule="evenodd" d="M28.0977 32.1534V32.1534C26.8283 32.3652 25.5301 32.0077 24.548 31.1759C23.566 30.3442 22.9996 29.1225 22.9996 27.8356V20.1644C22.9996 18.8775 23.566 17.6558 24.548 16.8241C25.5301 15.9924 26.8283 15.6349 28.0977 15.8466V15.8466C32.0835 16.5108 35.0048 19.9593 35.0046 24V24C35.0048 28.0407 32.0835 31.4893 28.0977 32.1534V32.1534Z" stroke="#5946D7" stroke-width="2" stroke-linecap="round" stroke-linejoin="round"/>
<path fill-rule="evenodd" clip-rule="evenodd" d="M28.0977 32.1534V32.1534C26.8283 32.3652 25.5301 32.0077 24.548 31.1759C23.566 30.3442 22.9996 29.1225 22.9996 27.8356V20.1644C22.9996 18.8775 23.566 17.6558 24.548 16.8241C25.5301 15.9924 26.8283 15.6349 28.0977 15.8466V15.8466C32.0835 16.5108 35.0048 19.9593 35.0046 24V24C35.0048 28.0407 32.0835 31.4893 28.0977 32.1534V32.1534Z" stroke="#6B59CC" stroke-width="2" stroke-linecap="round" stroke-linejoin="round"/>
<path d="M13.9958 19.9983L17.9975 18.9979" stroke="#2E1066" stroke-width="2" stroke-linecap="round" stroke-linejoin="round"/>
<path d="M13.9958 19.9983L17.9975 18.9979" stroke="#410F9E" stroke-width="2" stroke-linecap="round" stroke-linejoin="round"/>
<path d="M13.9958 19.9983L17.9975 18.9979" stroke="#453888" stroke-width="2" stroke-linecap="round" stroke-linejoin="round"/>
<path d="M13.9958 19.9983L17.9975 18.9979" stroke="#5946D7" stroke-width="2" stroke-linecap="round" stroke-linejoin="round"/>
<path d="M13.9958 19.9983L17.9975 18.9979" stroke="#6B59CC" stroke-width="2" stroke-linecap="round" stroke-linejoin="round"/>
<path d="M13.9958 25.0004L17.9975 24" stroke="#2E1066" stroke-width="2" stroke-linecap="round" stroke-linejoin="round"/>
<path d="M13.9958 25.0004L17.9975 24" stroke="#410F9E" stroke-width="2" stroke-linecap="round" stroke-linejoin="round"/>
<path d="M13.9958 25.0004L17.9975 24" stroke="#453888" stroke-width="2" stroke-linecap="round" stroke-linejoin="round"/>
<path d="M13.9958 25.0004L17.9975 24" stroke="#5946D7" stroke-width="2" stroke-linecap="round" stroke-linejoin="round"/>
<path d="M13.9958 25.0004L17.9975 24" stroke="#6B59CC" stroke-width="2" stroke-linecap="round" stroke-linejoin="round"/>
<path fill-rule="evenodd" clip-rule="evenodd" d="M24 42.0075V42.0075C14.0547 42.0075 5.99249 33.9453 5.99249 24V24C5.99249 14.0547 14.0547 5.99249 24 5.99249V5.99249C33.9453 5.99249 42.0075 14.0547 42.0075 24V24C42.0075 33.9453 33.9453 42.0075 24 42.0075V42.0075Z" stroke="#2E1066" stroke-width="2" stroke-linecap="round" stroke-linejoin="round"/>
<path fill-rule="evenodd" clip-rule="evenodd" d="M24 42.0075V42.0075C14.0547 42.0075 5.99249 33.9453 5.99249 24V24C5.99249 14.0547 14.0547 5.99249 24 5.99249V5.99249C33.9453 5.99249 42.0075 14.0547 42.0075 24V24C42.0075 33.9453 33.9453 42.0075 24 42.0075V42.0075Z" stroke="#410F9E" stroke-width="2" stroke-linecap="round" stroke-linejoin="round"/>
<path fill-rule="evenodd" clip-rule="evenodd" d="M24 42.0075V42.0075C14.0547 42.0075 5.99249 33.9453 5.99249 24V24C5.99249 14.0547 14.0547 5.99249 24 5.99249V5.99249C33.9453 5.99249 42.0075 14.0547 42.0075 24V24C42.0075 33.9453 33.9453 42.0075 24 42.0075V42.0075Z" stroke="#453888" stroke-width="2" stroke-linecap="round" stroke-linejoin="round"/>
<path fill-rule="evenodd" clip-rule="evenodd" d="M24 42.0075V42.0075C14.0547 42.0075 5.99249 33.9453 5.99249 24V24C5.99249 14.0547 14.0547 5.99249 24 5.99249V5.99249C33.9453 5.99249 42.0075 14.0547 42.0075 24V24C42.0075 33.9453 33.9453 42.0075 24 42.0075V42.0075Z" stroke="#5946D7" stroke-width="2" stroke-linecap="round" stroke-linejoin="round"/>
<path fill-rule="evenodd" clip-rule="evenodd" d="M24 42.0075V42.0075C14.0547 42.0075 5.99249 33.9453 5.99249 24V24C5.99249 14.0547 14.0547 5.99249 24 5.99249V5.99249C33.9453 5.99249 42.0075 14.0547 42.0075 24V24C42.0075 33.9453 33.9453 42.0075 24 42.0075V42.0075Z" stroke="#6B59CC" stroke-width="2" stroke-linecap="round" stroke-linejoin="round"/>
<path d="M13.9958 30.0025L17.9975 29.0021" stroke="#2E1066" stroke-width="2" stroke-linecap="round" stroke-linejoin="round"/>
<path d="M13.9958 30.0025L17.9975 29.0021" stroke="#410F9E" stroke-width="2" stroke-linecap="round" stroke-linejoin="round"/>
<path d="M13.9958 30.0025L17.9975 29.0021" stroke="#453888" stroke-width="2" stroke-linecap="round" stroke-linejoin="round"/>
<path d="M13.9958 30.0025L17.9975 29.0021" stroke="#5946D7" stroke-width="2" stroke-linecap="round" stroke-linejoin="round"/>
<path d="M13.9958 30.0025L17.9975 29.0021" stroke="#6B59CC" stroke-width="2" stroke-linecap="round" stroke-linejoin="round"/>
</g>
<defs>
<clipPath id="clip0_4681_2530">
<rect width="48" height="48" fill="white"/>
</clipPath>
</defs>
</svg>
