<svg width="48" height="48" viewBox="0 0 48 48" fill="none" xmlns="http://www.w3.org/2000/svg">
<g clip-path="url(#clip0_111_1798)">
<path fill-rule="evenodd" clip-rule="evenodd" d="M7.736 24.708L10.564 21.88C12.126 20.318 14.658 20.318 16.22 21.88L26.12 31.78C27.682 33.342 27.682 35.874 26.12 37.436L23.292 40.264C21.73 41.826 19.198 41.826 17.636 40.264L7.736 30.364C6.174 28.802 6.174 26.27 7.736 24.708V24.708Z" stroke="#2E1066" stroke-width="2" stroke-linecap="round" stroke-linejoin="round"/>
<path fill-rule="evenodd" clip-rule="evenodd" d="M7.736 24.708L10.564 21.88C12.126 20.318 14.658 20.318 16.22 21.88L26.12 31.78C27.682 33.342 27.682 35.874 26.12 37.436L23.292 40.264C21.73 41.826 19.198 41.826 17.636 40.264L7.736 30.364C6.174 28.802 6.174 26.27 7.736 24.708V24.708Z" stroke="#410F9E" stroke-width="2" stroke-linecap="round" stroke-linejoin="round"/>
<path fill-rule="evenodd" clip-rule="evenodd" d="M7.736 24.708L10.564 21.88C12.126 20.318 14.658 20.318 16.22 21.88L26.12 31.78C27.682 33.342 27.682 35.874 26.12 37.436L23.292 40.264C21.73 41.826 19.198 41.826 17.636 40.264L7.736 30.364C6.174 28.802 6.174 26.27 7.736 24.708V24.708Z" stroke="#453888" stroke-width="2" stroke-linecap="round" stroke-linejoin="round"/>
<path fill-rule="evenodd" clip-rule="evenodd" d="M7.736 24.708L10.564 21.88C12.126 20.318 14.658 20.318 16.22 21.88L26.12 31.78C27.682 33.342 27.682 35.874 26.12 37.436L23.292 40.264C21.73 41.826 19.198 41.826 17.636 40.264L7.736 30.364C6.174 28.802 6.174 26.27 7.736 24.708V24.708Z" stroke="#5946D7" stroke-width="2" stroke-linecap="round" stroke-linejoin="round"/>
<path fill-rule="evenodd" clip-rule="evenodd" d="M7.736 24.708L10.564 21.88C12.126 20.318 14.658 20.318 16.22 21.88L26.12 31.78C27.682 33.342 27.682 35.874 26.12 37.436L23.292 40.264C21.73 41.826 19.198 41.826 17.636 40.264L7.736 30.364C6.174 28.802 6.174 26.27 7.736 24.708V24.708Z" stroke="#6B59CC" stroke-width="2" stroke-linecap="round" stroke-linejoin="round"/>
<path d="M9.13999 31.78L4.89999 36.02" stroke="#2E1066" stroke-width="2" stroke-linecap="round" stroke-linejoin="round"/>
<path d="M9.13999 31.78L4.89999 36.02" stroke="#410F9E" stroke-width="2" stroke-linecap="round" stroke-linejoin="round"/>
<path d="M9.13999 31.78L4.89999 36.02" stroke="#453888" stroke-width="2" stroke-linecap="round" stroke-linejoin="round"/>
<path d="M9.13999 31.78L4.89999 36.02" stroke="#5946D7" stroke-width="2" stroke-linecap="round" stroke-linejoin="round"/>
<path d="M9.13999 31.78L4.89999 36.02" stroke="#6B59CC" stroke-width="2" stroke-linecap="round" stroke-linejoin="round"/>
<path d="M12.52 43.62L16.76 39.38" stroke="#2E1066" stroke-width="2" stroke-linecap="round" stroke-linejoin="round"/>
<path d="M12.52 43.62L16.76 39.38" stroke="#410F9E" stroke-width="2" stroke-linecap="round" stroke-linejoin="round"/>
<path d="M12.52 43.62L16.76 39.38" stroke="#453888" stroke-width="2" stroke-linecap="round" stroke-linejoin="round"/>
<path d="M12.52 43.62L16.76 39.38" stroke="#5946D7" stroke-width="2" stroke-linecap="round" stroke-linejoin="round"/>
<path d="M12.52 43.62L16.76 39.38" stroke="#6B59CC" stroke-width="2" stroke-linecap="round" stroke-linejoin="round"/>
<path d="M33.192 7.736L30.364 4.908C29.582 4.126 28.316 4.126 27.536 4.908L25.294 7.15C24.918 7.526 24.708 8.034 24.708 8.564V13.392L21.88 16.22C21.098 17.002 21.098 18.268 21.88 19.048L28.952 26.12C29.734 26.902 31 26.902 31.78 26.12L34.608 23.292H39.436C39.966 23.292 40.476 23.082 40.85 22.706L43.092 20.464C43.874 19.682 43.874 18.416 43.092 17.636L40.264 14.808" stroke="#2E1066" stroke-width="2" stroke-linecap="round" stroke-linejoin="round"/>
<path d="M33.192 7.736L30.364 4.908C29.582 4.126 28.316 4.126 27.536 4.908L25.294 7.15C24.918 7.526 24.708 8.034 24.708 8.564V13.392L21.88 16.22C21.098 17.002 21.098 18.268 21.88 19.048L28.952 26.12C29.734 26.902 31 26.902 31.78 26.12L34.608 23.292H39.436C39.966 23.292 40.476 23.082 40.85 22.706L43.092 20.464C43.874 19.682 43.874 18.416 43.092 17.636L40.264 14.808" stroke="#410F9E" stroke-width="2" stroke-linecap="round" stroke-linejoin="round"/>
<path d="M33.192 7.736L30.364 4.908C29.582 4.126 28.316 4.126 27.536 4.908L25.294 7.15C24.918 7.526 24.708 8.034 24.708 8.564V13.392L21.88 16.22C21.098 17.002 21.098 18.268 21.88 19.048L28.952 26.12C29.734 26.902 31 26.902 31.78 26.12L34.608 23.292H39.436C39.966 23.292 40.476 23.082 40.85 22.706L43.092 20.464C43.874 19.682 43.874 18.416 43.092 17.636L40.264 14.808" stroke="#453888" stroke-width="2" stroke-linecap="round" stroke-linejoin="round"/>
<path d="M33.192 7.736L30.364 4.908C29.582 4.126 28.316 4.126 27.536 4.908L25.294 7.15C24.918 7.526 24.708 8.034 24.708 8.564V13.392L21.88 16.22C21.098 17.002 21.098 18.268 21.88 19.048L28.952 26.12C29.734 26.902 31 26.902 31.78 26.12L34.608 23.292H39.436C39.966 23.292 40.476 23.082 40.85 22.706L43.092 20.464C43.874 19.682 43.874 18.416 43.092 17.636L40.264 14.808" stroke="#5946D7" stroke-width="2" stroke-linecap="round" stroke-linejoin="round"/>
<path d="M33.192 7.736L30.364 4.908C29.582 4.126 28.316 4.126 27.536 4.908L25.294 7.15C24.918 7.526 24.708 8.034 24.708 8.564V13.392L21.88 16.22C21.098 17.002 21.098 18.268 21.88 19.048L28.952 26.12C29.734 26.902 31 26.902 31.78 26.12L34.608 23.292H39.436C39.966 23.292 40.476 23.082 40.85 22.706L43.092 20.464C43.874 19.682 43.874 18.416 43.092 17.636L40.264 14.808" stroke="#6B59CC" stroke-width="2" stroke-linecap="round" stroke-linejoin="round"/>
<path d="M30.5 19.5L28.5 17.5" stroke="#2E1066" stroke-width="2" stroke-linecap="round" stroke-linejoin="round"/>
<path d="M30.5 19.5L28.5 17.5" stroke="#410F9E" stroke-width="2" stroke-linecap="round" stroke-linejoin="round"/>
<path d="M30.5 19.5L28.5 17.5" stroke="#453888" stroke-width="2" stroke-linecap="round" stroke-linejoin="round"/>
<path d="M30.5 19.5L28.5 17.5" stroke="#5946D7" stroke-width="2" stroke-linecap="round" stroke-linejoin="round"/>
<path d="M30.5 19.5L28.5 17.5" stroke="#6B59CC" stroke-width="2" stroke-linecap="round" stroke-linejoin="round"/>
<path d="M32 44V42" stroke="#2E1066" stroke-width="2" stroke-linecap="round" stroke-linejoin="round"/>
<path d="M32 44V42" stroke="#410F9E" stroke-width="2" stroke-linecap="round" stroke-linejoin="round"/>
<path d="M32 44V42" stroke="#453888" stroke-width="2" stroke-linecap="round" stroke-linejoin="round"/>
<path d="M32 44V42" stroke="#5946D7" stroke-width="2" stroke-linecap="round" stroke-linejoin="round"/>
<path d="M32 44V42" stroke="#6B59CC" stroke-width="2" stroke-linecap="round" stroke-linejoin="round"/>
<path d="M44 32H42" stroke="#2E1066" stroke-width="2" stroke-linecap="round" stroke-linejoin="round"/>
<path d="M44 32H42" stroke="#410F9E" stroke-width="2" stroke-linecap="round" stroke-linejoin="round"/>
<path d="M44 32H42" stroke="#453888" stroke-width="2" stroke-linecap="round" stroke-linejoin="round"/>
<path d="M44 32H42" stroke="#5946D7" stroke-width="2" stroke-linecap="round" stroke-linejoin="round"/>
<path d="M44 32H42" stroke="#6B59CC" stroke-width="2" stroke-linecap="round" stroke-linejoin="round"/>
<path d="M42 42L40 40" stroke="#2E1066" stroke-width="2" stroke-linecap="round" stroke-linejoin="round"/>
<path d="M42 42L40 40" stroke="#410F9E" stroke-width="2" stroke-linecap="round" stroke-linejoin="round"/>
<path d="M42 42L40 40" stroke="#453888" stroke-width="2" stroke-linecap="round" stroke-linejoin="round"/>
<path d="M42 42L40 40" stroke="#5946D7" stroke-width="2" stroke-linecap="round" stroke-linejoin="round"/>
<path d="M42 42L40 40" stroke="#6B59CC" stroke-width="2" stroke-linecap="round" stroke-linejoin="round"/>
<path d="M16 4V6" stroke="#2E1066" stroke-width="2" stroke-linecap="round" stroke-linejoin="round"/>
<path d="M16 4V6" stroke="#410F9E" stroke-width="2" stroke-linecap="round" stroke-linejoin="round"/>
<path d="M16 4V6" stroke="#453888" stroke-width="2" stroke-linecap="round" stroke-linejoin="round"/>
<path d="M16 4V6" stroke="#5946D7" stroke-width="2" stroke-linecap="round" stroke-linejoin="round"/>
<path d="M16 4V6" stroke="#6B59CC" stroke-width="2" stroke-linecap="round" stroke-linejoin="round"/>
<path d="M4 16H6" stroke="#2E1066" stroke-width="2" stroke-linecap="round" stroke-linejoin="round"/>
<path d="M4 16H6" stroke="#410F9E" stroke-width="2" stroke-linecap="round" stroke-linejoin="round"/>
<path d="M4 16H6" stroke="#453888" stroke-width="2" stroke-linecap="round" stroke-linejoin="round"/>
<path d="M4 16H6" stroke="#5946D7" stroke-width="2" stroke-linecap="round" stroke-linejoin="round"/>
<path d="M4 16H6" stroke="#6B59CC" stroke-width="2" stroke-linecap="round" stroke-linejoin="round"/>
<path d="M6 6L8 8" stroke="#2E1066" stroke-width="2" stroke-linecap="round" stroke-linejoin="round"/>
<path d="M6 6L8 8" stroke="#410F9E" stroke-width="2" stroke-linecap="round" stroke-linejoin="round"/>
<path d="M6 6L8 8" stroke="#453888" stroke-width="2" stroke-linecap="round" stroke-linejoin="round"/>
<path d="M6 6L8 8" stroke="#5946D7" stroke-width="2" stroke-linecap="round" stroke-linejoin="round"/>
<path d="M6 6L8 8" stroke="#6B59CC" stroke-width="2" stroke-linecap="round" stroke-linejoin="round"/>
<path d="M15 29L19 33" stroke="#2E1066" stroke-width="2" stroke-linecap="round" stroke-linejoin="round"/>
<path d="M15 29L19 33" stroke="#410F9E" stroke-width="2" stroke-linecap="round" stroke-linejoin="round"/>
<path d="M15 29L19 33" stroke="#453888" stroke-width="2" stroke-linecap="round" stroke-linejoin="round"/>
<path d="M15 29L19 33" stroke="#5946D7" stroke-width="2" stroke-linecap="round" stroke-linejoin="round"/>
<path d="M15 29L19 33" stroke="#6B59CC" stroke-width="2" stroke-linecap="round" stroke-linejoin="round"/>
<path d="M43.092 11.98L38.85 16.222C38.068 17.004 36.802 17.004 36.022 16.222L31.778 11.98C30.996 11.198 30.996 9.932 31.778 9.152L36.02 4.91" stroke="#2E1066" stroke-width="2" stroke-linecap="round" stroke-linejoin="round"/>
<path d="M43.092 11.98L38.85 16.222C38.068 17.004 36.802 17.004 36.022 16.222L31.778 11.98C30.996 11.198 30.996 9.932 31.778 9.152L36.02 4.91" stroke="#410F9E" stroke-width="2" stroke-linecap="round" stroke-linejoin="round"/>
<path d="M43.092 11.98L38.85 16.222C38.068 17.004 36.802 17.004 36.022 16.222L31.778 11.98C30.996 11.198 30.996 9.932 31.778 9.152L36.02 4.91" stroke="#453888" stroke-width="2" stroke-linecap="round" stroke-linejoin="round"/>
<path d="M43.092 11.98L38.85 16.222C38.068 17.004 36.802 17.004 36.022 16.222L31.778 11.98C30.996 11.198 30.996 9.932 31.778 9.152L36.02 4.91" stroke="#5946D7" stroke-width="2" stroke-linecap="round" stroke-linejoin="round"/>
<path d="M43.092 11.98L38.85 16.222C38.068 17.004 36.802 17.004 36.022 16.222L31.778 11.98C30.996 11.198 30.996 9.932 31.778 9.152L36.02 4.91" stroke="#6B59CC" stroke-width="2" stroke-linecap="round" stroke-linejoin="round"/>
</g>
<defs>
<clipPath id="clip0_111_1798">
<rect width="48" height="48" fill="white"/>
</clipPath>
</defs>
</svg>
