<svg width="48" height="48" viewBox="0 0 48 48" fill="none" xmlns="http://www.w3.org/2000/svg">
<g clip-path="url(#clip0_4681_495)">
<path d="M34.0042 23.5138H14.0959" stroke="#2E1066" stroke-width="2" stroke-linecap="round" stroke-linejoin="round"/>
<path d="M34.0042 23.5138H14.0959" stroke="#410F9E" stroke-width="2" stroke-linecap="round" stroke-linejoin="round"/>
<path d="M34.0042 23.5138H14.0959" stroke="#453888" stroke-width="2" stroke-linecap="round" stroke-linejoin="round"/>
<path d="M34.0042 23.5138H14.0959" stroke="#5946D7" stroke-width="2" stroke-linecap="round" stroke-linejoin="round"/>
<path d="M34.0042 23.5138H14.0959" stroke="#6B59CC" stroke-width="2" stroke-linecap="round" stroke-linejoin="round"/>
<path d="M27.5014 27.8696H28.5018" stroke="#2E1066" stroke-width="2" stroke-linecap="round" stroke-linejoin="round"/>
<path d="M27.5014 27.8696H28.5018" stroke="#410F9E" stroke-width="2" stroke-linecap="round" stroke-linejoin="round"/>
<path d="M27.5014 27.8696H28.5018" stroke="#453888" stroke-width="2" stroke-linecap="round" stroke-linejoin="round"/>
<path d="M27.5014 27.8696H28.5018" stroke="#5946D7" stroke-width="2" stroke-linecap="round" stroke-linejoin="round"/>
<path d="M27.5014 27.8696H28.5018" stroke="#6B59CC" stroke-width="2" stroke-linecap="round" stroke-linejoin="round"/>
<path fill-rule="evenodd" clip-rule="evenodd" d="M13.9958 24.6142V30.6407C13.9958 32.4805 15.4855 33.9728 17.3252 33.9761L30.6708 34.0041C31.5554 34.0036 32.4036 33.6517 33.0287 33.0258C33.6538 32.3999 34.0047 31.5514 34.0042 30.6668V17.3332C34.0053 15.4935 32.5165 14.0002 30.6768 13.9958H22.1833C21.1642 13.9958 20.2011 14.4617 19.5682 15.2603L15.4425 20.4765C14.5084 21.6537 13.9987 23.1115 13.9958 24.6142Z" stroke="#2E1066" stroke-width="2" stroke-linecap="round" stroke-linejoin="round"/>
<path fill-rule="evenodd" clip-rule="evenodd" d="M13.9958 24.6142V30.6407C13.9958 32.4805 15.4855 33.9728 17.3252 33.9761L30.6708 34.0041C31.5554 34.0036 32.4036 33.6517 33.0287 33.0258C33.6538 32.3999 34.0047 31.5514 34.0042 30.6668V17.3332C34.0053 15.4935 32.5165 14.0002 30.6768 13.9958H22.1833C21.1642 13.9958 20.2011 14.4617 19.5682 15.2603L15.4425 20.4765C14.5084 21.6537 13.9987 23.1115 13.9958 24.6142Z" stroke="#410F9E" stroke-width="2" stroke-linecap="round" stroke-linejoin="round"/>
<path fill-rule="evenodd" clip-rule="evenodd" d="M13.9958 24.6142V30.6407C13.9958 32.4805 15.4855 33.9728 17.3252 33.9761L30.6708 34.0041C31.5554 34.0036 32.4036 33.6517 33.0287 33.0258C33.6538 32.3999 34.0047 31.5514 34.0042 30.6668V17.3332C34.0053 15.4935 32.5165 14.0002 30.6768 13.9958H22.1833C21.1642 13.9958 20.2011 14.4617 19.5682 15.2603L15.4425 20.4765C14.5084 21.6537 13.9987 23.1115 13.9958 24.6142Z" stroke="#453888" stroke-width="2" stroke-linecap="round" stroke-linejoin="round"/>
<path fill-rule="evenodd" clip-rule="evenodd" d="M13.9958 24.6142V30.6407C13.9958 32.4805 15.4855 33.9728 17.3252 33.9761L30.6708 34.0041C31.5554 34.0036 32.4036 33.6517 33.0287 33.0258C33.6538 32.3999 34.0047 31.5514 34.0042 30.6668V17.3332C34.0053 15.4935 32.5165 14.0002 30.6768 13.9958H22.1833C21.1642 13.9958 20.2011 14.4617 19.5682 15.2603L15.4425 20.4765C14.5084 21.6537 13.9987 23.1115 13.9958 24.6142Z" stroke="#5946D7" stroke-width="2" stroke-linecap="round" stroke-linejoin="round"/>
<path fill-rule="evenodd" clip-rule="evenodd" d="M13.9958 24.6142V30.6407C13.9958 32.4805 15.4855 33.9728 17.3252 33.9761L30.6708 34.0041C31.5554 34.0036 32.4036 33.6517 33.0287 33.0258C33.6538 32.3999 34.0047 31.5514 34.0042 30.6668V17.3332C34.0053 15.4935 32.5165 14.0002 30.6768 13.9958H22.1833C21.1642 13.9958 20.2011 14.4617 19.5682 15.2603L15.4425 20.4765C14.5084 21.6537 13.9987 23.1115 13.9958 24.6142Z" stroke="#6B59CC" stroke-width="2" stroke-linecap="round" stroke-linejoin="round"/>
<rect x="5.99249" y="5.99249" width="36.015" height="36.015" rx="5" stroke="#2E1066" stroke-width="2" stroke-linecap="round" stroke-linejoin="round"/>
<rect x="5.99249" y="5.99249" width="36.015" height="36.015" rx="5" stroke="#410F9E" stroke-width="2" stroke-linecap="round" stroke-linejoin="round"/>
<rect x="5.99249" y="5.99249" width="36.015" height="36.015" rx="5" stroke="#453888" stroke-width="2" stroke-linecap="round" stroke-linejoin="round"/>
<rect x="5.99249" y="5.99249" width="36.015" height="36.015" rx="5" stroke="#5946D7" stroke-width="2" stroke-linecap="round" stroke-linejoin="round"/>
<rect x="5.99249" y="5.99249" width="36.015" height="36.015" rx="5" stroke="#6B59CC" stroke-width="2" stroke-linecap="round" stroke-linejoin="round"/>
</g>
<defs>
<clipPath id="clip0_4681_495">
<rect width="48" height="48" fill="white"/>
</clipPath>
</defs>
</svg>
