<svg width="48" height="48" viewBox="0 0 48 48" fill="none" xmlns="http://www.w3.org/2000/svg">
<g clip-path="url(#clip0_4681_1834)">
<path d="M15 26L24 44" stroke="#2E1066" stroke-width="2" stroke-linecap="round" stroke-linejoin="round"/>
<path d="M15 26L24 44" stroke="#410F9E" stroke-width="2" stroke-linecap="round" stroke-linejoin="round"/>
<path d="M15 26L24 44" stroke="#453888" stroke-width="2" stroke-linecap="round" stroke-linejoin="round"/>
<path d="M15 26L24 44" stroke="#5946D7" stroke-width="2" stroke-linecap="round" stroke-linejoin="round"/>
<path d="M15 26L24 44" stroke="#6B59CC" stroke-width="2" stroke-linecap="round" stroke-linejoin="round"/>
<path fill-rule="evenodd" clip-rule="evenodd" d="M42.578 22.946L34.95 38.2C34.476 39.15 33.336 39.574 32.372 39.132C29.656 37.886 26.726 37.282 23.796 37.28C20.866 37.282 17.936 37.886 15.22 39.132C14.254 39.574 13.114 39.15 12.64 38.2L5.01399 22.946C4.52999 21.98 4.88999 20.774 5.84999 20.282C11.47 17.4 17.63 16.002 23.794 16C29.958 16.002 36.118 17.4 41.74 20.282C42.702 20.776 43.06 21.98 42.578 22.946Z" stroke="#2E1066" stroke-width="2" stroke-linecap="round" stroke-linejoin="round"/>
<path fill-rule="evenodd" clip-rule="evenodd" d="M42.578 22.946L34.95 38.2C34.476 39.15 33.336 39.574 32.372 39.132C29.656 37.886 26.726 37.282 23.796 37.28C20.866 37.282 17.936 37.886 15.22 39.132C14.254 39.574 13.114 39.15 12.64 38.2L5.01399 22.946C4.52999 21.98 4.88999 20.774 5.84999 20.282C11.47 17.4 17.63 16.002 23.794 16C29.958 16.002 36.118 17.4 41.74 20.282C42.702 20.776 43.06 21.98 42.578 22.946Z" stroke="#410F9E" stroke-width="2" stroke-linecap="round" stroke-linejoin="round"/>
<path fill-rule="evenodd" clip-rule="evenodd" d="M42.578 22.946L34.95 38.2C34.476 39.15 33.336 39.574 32.372 39.132C29.656 37.886 26.726 37.282 23.796 37.28C20.866 37.282 17.936 37.886 15.22 39.132C14.254 39.574 13.114 39.15 12.64 38.2L5.01399 22.946C4.52999 21.98 4.88999 20.774 5.84999 20.282C11.47 17.4 17.63 16.002 23.794 16C29.958 16.002 36.118 17.4 41.74 20.282C42.702 20.776 43.06 21.98 42.578 22.946Z" stroke="#453888" stroke-width="2" stroke-linecap="round" stroke-linejoin="round"/>
<path fill-rule="evenodd" clip-rule="evenodd" d="M42.578 22.946L34.95 38.2C34.476 39.15 33.336 39.574 32.372 39.132C29.656 37.886 26.726 37.282 23.796 37.28C20.866 37.282 17.936 37.886 15.22 39.132C14.254 39.574 13.114 39.15 12.64 38.2L5.01399 22.946C4.52999 21.98 4.88999 20.774 5.84999 20.282C11.47 17.4 17.63 16.002 23.794 16C29.958 16.002 36.118 17.4 41.74 20.282C42.702 20.776 43.06 21.98 42.578 22.946Z" stroke="#5946D7" stroke-width="2" stroke-linecap="round" stroke-linejoin="round"/>
<path fill-rule="evenodd" clip-rule="evenodd" d="M42.578 22.946L34.95 38.2C34.476 39.15 33.336 39.574 32.372 39.132C29.656 37.886 26.726 37.282 23.796 37.28C20.866 37.282 17.936 37.886 15.22 39.132C14.254 39.574 13.114 39.15 12.64 38.2L5.01399 22.946C4.52999 21.98 4.88999 20.774 5.84999 20.282C11.47 17.4 17.63 16.002 23.794 16C29.958 16.002 36.118 17.4 41.74 20.282C42.702 20.776 43.06 21.98 42.578 22.946Z" stroke="#6B59CC" stroke-width="2" stroke-linecap="round" stroke-linejoin="round"/>
<path d="M24 9.99999C24 9.66799 23.97 9.33399 23.91 9.00599" stroke="#2E1066" stroke-width="2" stroke-linecap="round" stroke-linejoin="round"/>
<path d="M24 9.99999C24 9.66799 23.97 9.33399 23.91 9.00599" stroke="#410F9E" stroke-width="2" stroke-linecap="round" stroke-linejoin="round"/>
<path d="M24 9.99999C24 9.66799 23.97 9.33399 23.91 9.00599" stroke="#453888" stroke-width="2" stroke-linecap="round" stroke-linejoin="round"/>
<path d="M24 9.99999C24 9.66799 23.97 9.33399 23.91 9.00599" stroke="#5946D7" stroke-width="2" stroke-linecap="round" stroke-linejoin="round"/>
<path d="M24 9.99999C24 9.66799 23.97 9.33399 23.91 9.00599" stroke="#6B59CC" stroke-width="2" stroke-linecap="round" stroke-linejoin="round"/>
<path d="M24.09 9.00599C24.03 9.33399 24 9.66799 24 9.99999" stroke="#2E1066" stroke-width="2" stroke-linecap="round" stroke-linejoin="round"/>
<path d="M24.09 9.00599C24.03 9.33399 24 9.66799 24 9.99999" stroke="#410F9E" stroke-width="2" stroke-linecap="round" stroke-linejoin="round"/>
<path d="M24.09 9.00599C24.03 9.33399 24 9.66799 24 9.99999" stroke="#453888" stroke-width="2" stroke-linecap="round" stroke-linejoin="round"/>
<path d="M24.09 9.00599C24.03 9.33399 24 9.66799 24 9.99999" stroke="#5946D7" stroke-width="2" stroke-linecap="round" stroke-linejoin="round"/>
<path d="M24.09 9.00599C24.03 9.33399 24 9.66799 24 9.99999" stroke="#6B59CC" stroke-width="2" stroke-linecap="round" stroke-linejoin="round"/>
<path d="M35.174 5.75801C34.926 5.53001 34.662 5.32401 34.386 5.14201" stroke="#2E1066" stroke-width="2" stroke-linecap="round" stroke-linejoin="round"/>
<path d="M35.174 5.75801C34.926 5.53001 34.662 5.32401 34.386 5.14201" stroke="#410F9E" stroke-width="2" stroke-linecap="round" stroke-linejoin="round"/>
<path d="M35.174 5.75801C34.926 5.53001 34.662 5.32401 34.386 5.14201" stroke="#453888" stroke-width="2" stroke-linecap="round" stroke-linejoin="round"/>
<path d="M35.174 5.75801C34.926 5.53001 34.662 5.32401 34.386 5.14201" stroke="#5946D7" stroke-width="2" stroke-linecap="round" stroke-linejoin="round"/>
<path d="M35.174 5.75801C34.926 5.53001 34.662 5.32401 34.386 5.14201" stroke="#6B59CC" stroke-width="2" stroke-linecap="round" stroke-linejoin="round"/>
<path d="M28.762 4.226C28.398 4.32 28.05 4.456 27.71 4.62" stroke="#2E1066" stroke-width="2" stroke-linecap="round" stroke-linejoin="round"/>
<path d="M28.762 4.226C28.398 4.32 28.05 4.456 27.71 4.62" stroke="#410F9E" stroke-width="2" stroke-linecap="round" stroke-linejoin="round"/>
<path d="M28.762 4.226C28.398 4.32 28.05 4.456 27.71 4.62" stroke="#453888" stroke-width="2" stroke-linecap="round" stroke-linejoin="round"/>
<path d="M28.762 4.226C28.398 4.32 28.05 4.456 27.71 4.62" stroke="#5946D7" stroke-width="2" stroke-linecap="round" stroke-linejoin="round"/>
<path d="M28.762 4.226C28.398 4.32 28.05 4.456 27.71 4.62" stroke="#6B59CC" stroke-width="2" stroke-linecap="round" stroke-linejoin="round"/>
<path d="M13.614 5.14201C13.338 5.32401 13.074 5.53001 12.826 5.75801" stroke="#2E1066" stroke-width="2" stroke-linecap="round" stroke-linejoin="round"/>
<path d="M13.614 5.14201C13.338 5.32401 13.074 5.53001 12.826 5.75801" stroke="#410F9E" stroke-width="2" stroke-linecap="round" stroke-linejoin="round"/>
<path d="M13.614 5.14201C13.338 5.32401 13.074 5.53001 12.826 5.75801" stroke="#453888" stroke-width="2" stroke-linecap="round" stroke-linejoin="round"/>
<path d="M13.614 5.14201C13.338 5.32401 13.074 5.53001 12.826 5.75801" stroke="#5946D7" stroke-width="2" stroke-linecap="round" stroke-linejoin="round"/>
<path d="M13.614 5.14201C13.338 5.32401 13.074 5.53001 12.826 5.75801" stroke="#6B59CC" stroke-width="2" stroke-linecap="round" stroke-linejoin="round"/>
<path d="M19.238 4.226C19.602 4.32 19.95 4.456 20.29 4.62" stroke="#2E1066" stroke-width="2" stroke-linecap="round" stroke-linejoin="round"/>
<path d="M19.238 4.226C19.602 4.32 19.95 4.456 20.29 4.62" stroke="#410F9E" stroke-width="2" stroke-linecap="round" stroke-linejoin="round"/>
<path d="M19.238 4.226C19.602 4.32 19.95 4.456 20.29 4.62" stroke="#453888" stroke-width="2" stroke-linecap="round" stroke-linejoin="round"/>
<path d="M19.238 4.226C19.602 4.32 19.95 4.456 20.29 4.62" stroke="#5946D7" stroke-width="2" stroke-linecap="round" stroke-linejoin="round"/>
<path d="M19.238 4.226C19.602 4.32 19.95 4.456 20.29 4.62" stroke="#6B59CC" stroke-width="2" stroke-linecap="round" stroke-linejoin="round"/>
<path d="M24 26V24" stroke="#2E1066" stroke-width="2" stroke-linecap="round" stroke-linejoin="round"/>
<path d="M24 26V24" stroke="#410F9E" stroke-width="2" stroke-linecap="round" stroke-linejoin="round"/>
<path d="M24 26V24" stroke="#453888" stroke-width="2" stroke-linecap="round" stroke-linejoin="round"/>
<path d="M24 26V24" stroke="#5946D7" stroke-width="2" stroke-linecap="round" stroke-linejoin="round"/>
<path d="M24 26V24" stroke="#6B59CC" stroke-width="2" stroke-linecap="round" stroke-linejoin="round"/>
<path d="M24 16V18" stroke="#2E1066" stroke-width="2" stroke-linecap="round" stroke-linejoin="round"/>
<path d="M24 16V18" stroke="#410F9E" stroke-width="2" stroke-linecap="round" stroke-linejoin="round"/>
<path d="M24 16V18" stroke="#453888" stroke-width="2" stroke-linecap="round" stroke-linejoin="round"/>
<path d="M24 16V18" stroke="#5946D7" stroke-width="2" stroke-linecap="round" stroke-linejoin="round"/>
<path d="M24 16V18" stroke="#6B59CC" stroke-width="2" stroke-linecap="round" stroke-linejoin="round"/>
</g>
<defs>
<clipPath id="clip0_4681_1834">
<rect width="48" height="48" fill="white"/>
</clipPath>
</defs>
</svg>
